<svg id="Layer_1" data-name="Layer 1" xmlns="http://www.w3.org/2000/svg" viewBox="0 0 848.72 240.67"><defs><style>.cls-1{fill:#1d1d1b;}</style></defs><title>logo</title><path class="cls-1" d="M168.09,160.92a29.22,29.22,0,0,1-4.33-6.65A36.94,36.94,0,0,1,161,145.8a53,53,0,0,1-1-10.71v-4.2a38.72,38.72,0,0,1,.29-4.62H165a18.12,18.12,0,0,0-1.67-4.06,7.25,7.25,0,0,0-2.67-2.66q1.54-12.89,5.4-30.17t10.56-40.67c0-.84-.58-1.66-1.75-2.45a16.52,16.52,0,0,0-3.92-2,13.71,13.71,0,0,0-4.27-.84c-1.39-.05-2.33.3-2.79,1l-.85,3.08-2.94,4.34-8.89,13.3Q146,73.06,139.46,82.1t-13.93,18.69q-7.41,9.66-15.4,18.76c-1.39.09-2.63.14-3.71.14h-3.56c-3.55,0-7.15-.17-10.79-.49a70,70,0,0,1-11.33-2,8,8,0,0,0,1,5.6,10.77,10.77,0,0,0,4.27,3.64,22.46,22.46,0,0,0,6.86,2,83.65,83.65,0,0,0,9,.69q-7,7.58-13.94,14a135.33,135.33,0,0,1-13.72,11.28,71.44,71.44,0,0,1-13.15,7.56A30.81,30.81,0,0,1,49,164.63a12.37,12.37,0,0,1-5.17-1.4A41.56,41.56,0,0,1,38,159.87a8,8,0,0,0-1.67,5.94,12.13,12.13,0,0,0,2.09,5.4,14,14,0,0,0,4.06,3.85,8.46,8.46,0,0,0,4.35,1.47,41,41,0,0,0,16.73-3.85,92.38,92.38,0,0,0,17.35-10.37,167.82,167.82,0,0,0,17.57-15.18q8.83-8.69,17.37-18.48,6.57-.28,12.73-.77t12.6-.91c.47,0,.94,0,1.4-.07s.94-.12,1.4-.21a4.7,4.7,0,0,0-.13,1.12v1.12c-.19,1.58-.33,3.24-.43,5s-.13,3.29-.13,4.69A50.67,50.67,0,0,0,145,152.66a26.88,26.88,0,0,0,4.48,9.17,17.4,17.4,0,0,0,6.37,5.11,21.65,21.65,0,0,0,7.21,1.89,23.05,23.05,0,0,0,4.41-.42,28.49,28.49,0,0,0,6.23-2.38A35.22,35.22,0,0,1,168.09,160.92ZM148.78,98.34q-2.1,8.88-3.65,19.39-3.63.13-7.14.35l-8.25.48-5.46.57q8.53-10.36,15.6-19.67t13.38-18.13Q150.88,89.45,148.78,98.34Z"/><path class="cls-1" d="M362.13,102.19a9.69,9.69,0,0,0,6.51-2,12,12,0,0,0,4.41-5.6v.14a6.64,6.64,0,0,0-5.6-9.8,9.55,9.55,0,0,0-6.37,1.89,11.41,11.41,0,0,0-4.41,5.67v-.14c-1.12,2.52-1.17,4.73-.14,6.65S359.42,102,362.13,102.19Z"/><path class="cls-1" d="M429.54,129.21a5.59,5.59,0,0,0-3.43-.07,6,6,0,0,0-3.36,2.31,50,50,0,0,1-3,4.9,28.06,28.06,0,0,1-3.85,4.48,64,64,0,0,1-5,4.62,10.18,10.18,0,0,1-2.8,1.82c-.19-.47,0-1.85.49-4.13s1.19-4.83,2-7.63a64.93,64.93,0,0,1,2.59-7.63c1.07-2.66,2.21-5.49,3.43-8.47.18-.47.42-1.1.7-1.89s.51-1.43.7-1.89q.69-2.1-1.75-3.29a11.52,11.52,0,0,0-5.67-1,14.48,14.48,0,0,0-2.87-5.81,7.89,7.89,0,0,0-5.81-2.73,20.37,20.37,0,0,0-9.8,2.38,37,37,0,0,0-9.45,6.86,49.9,49.9,0,0,0-7.84,10.07,46.9,46.9,0,0,0-4.61,10.4c-.18.28-.35.55-.5.81-.28.46-.33.6-.14.42-.84,1.3-1.73,2.59-2.66,3.85a24.06,24.06,0,0,1-3.08,3.43q-5.6,6-7.7,6.3c-.37-.38-.28-1.71.28-4s1.31-4.83,2.24-7.63q.84-2.81,2-5.67c.75-1.92,1.49-3.85,2.24-5.81q1-2.39,1.89-4.69c.61-1.54,1.19-3.11,1.75-4.69.28-.56-.26-1.08-1.61-1.54a20.7,20.7,0,0,0-4.69-1,23,23,0,0,0-5.11,0c-1.63.18-2.64.56-3,1.12l-.14.42-.7,1.54v-.14c-.47,1.12-1,2.45-1.75,4s-1.4,3.12-2.1,4.76-1.38,3.29-2,5a44.54,44.54,0,0,0-1.54,4.62c-.06.22-.1.46-.16.68-.82,1.22-1.65,2.42-2.5,3.58a42.68,42.68,0,0,1-4.27,5.05,24.23,24.23,0,0,1-4.34,3.5,8,8,0,0,1-4.13,1.33q-3.22.13-3.22-3.5a20.07,20.07,0,0,1,.77-5.11,52.71,52.71,0,0,1,2-6c.84-2.1,1.8-4.23,2.87-6.37s2.17-4.2,3.29-6.16l-.14.14a8.59,8.59,0,0,0,1.33-2.8,4.26,4.26,0,0,0-.21-2.73,6,6,0,0,0-2.31-2.52,16.18,16.18,0,0,0-5.11-2,13.4,13.4,0,0,1-1.61-.78,18.81,18.81,0,0,1-2.59-1.67,32.14,32.14,0,0,1-2.73-2.31,8,8,0,0,1-1.89-2.52,6.47,6.47,0,0,0-4.48-2.59,10.89,10.89,0,0,0-6,.42A8.1,8.1,0,0,0,304,105q-1.54,2.79.56,7.56c.75.28.89,1.16.42,2.66a39.59,39.59,0,0,1-2,5q-1.34,2.79-2.94,5.46t-2.31,3.92c-.28.46-.58.93-.91,1.4a6.34,6.34,0,0,0-.65,1.15c-1.23,1.89-2.54,3.75-4,5.57a43.84,43.84,0,0,1-4.83,5.25,29.57,29.57,0,0,1-5,3.78,9.93,9.93,0,0,1-5,1.47,5.07,5.07,0,0,1-4.9-2.66,60.81,60.81,0,0,0,13.3-11.44,60.28,60.28,0,0,0,8.4-13.12,34.9,34.9,0,0,0,1.4-4.26,19.73,19.73,0,0,0,.7-5.23,10.77,10.77,0,0,0-1.75-6.21c-1.17-1.72-3.24-2.58-6.23-2.58a18.48,18.48,0,0,0-9.31,2.52,36.12,36.12,0,0,0-8,6.29,46.36,46.36,0,0,0-6.37,8.34,54.41,54.41,0,0,0-4.27,8.61,38.77,38.77,0,0,0-1.84,5.94,84.48,84.48,0,0,1-7.19,9.88,90.62,90.62,0,0,1-8.05,8.26,172.47,172.47,0,0,0,6.09-18.28q2.44-9,4.41-19a3.06,3.06,0,0,0-2.17-2.52,9,9,0,0,0-4.55-.28,17.55,17.55,0,0,0-3-6.72,7.62,7.62,0,0,0-6.23-3.08,20.4,20.4,0,0,0-9.8,2.38,37,37,0,0,0-9.45,6.86,50.26,50.26,0,0,0-7.84,10.07,47.73,47.73,0,0,0-4.81,11.05c-1.23,1.56-2.47,3.09-3.73,4.57a65.22,65.22,0,0,1-4.83,5.11,25.57,25.57,0,0,1-4.69,3.57,8.73,8.73,0,0,1-4.27,1.33h-.42c-1.4.28-2.33-.42-2.8-2.1a20.44,20.44,0,0,1-.28-7l.84-1q3.22-3.51,7.56-8.4t9.1-11.34a158.42,158.42,0,0,0,9.45-14.49,151.37,151.37,0,0,0,8.75-17.71q.7-1.83,1.68-4.48c.66-1.78,1.26-3.62,1.82-5.53s1.05-3.85,1.47-5.81a26.24,26.24,0,0,0,.63-5.46,10.7,10.7,0,0,0-2-6.72q-2-2.67-6.37-2.94-4.76.56-10.08,5A66.35,66.35,0,0,0,197.07,71a135.64,135.64,0,0,0-10,15.68,160.19,160.19,0,0,0-8.47,17.84,137.13,137.13,0,0,0-5.81,17.93,67.76,67.76,0,0,0-2.17,16q0,8.25,3,13.51t10,5.81a21.25,21.25,0,0,0,9.1-2,36.34,36.34,0,0,0,8.12-5.25c1.27-1.09,2.51-2.24,3.7-3.46a17.61,17.61,0,0,0,2.46,7.24q2.66,4.18,9.66,3.92a20.38,20.38,0,0,0,6.58-1.13,15.42,15.42,0,0,0,5.32-3.91,1.25,1.25,0,0,0-.14.56v.14a3.18,3.18,0,0,1-.28,1l-3.5,11.34q-2.39,1.53-4.83,3.36l-5.25,3.92q-7.84,6.15-8.54,13.16a15.21,15.21,0,0,0,.07,3.22,13.72,13.72,0,0,0,.84,3.29,8.92,8.92,0,0,0,1.82,2.87,6.81,6.81,0,0,0,3.15,1.82,7.24,7.24,0,0,0,3.71.14,12.09,12.09,0,0,0,3.29-1.33,13.73,13.73,0,0,0,2.73-2.1,19.22,19.22,0,0,0,1.89-2.17,51.17,51.17,0,0,0,4-6.37c1.45-2.67,3.24-6.37,5.39-11.13l-.14.14,2.38-4.62q4.2-3.09,8.19-6.58t8-7.63q3.45-3.58,6.91-7.9a14.63,14.63,0,0,0,3.31,5.94q4.13,4.41,12.95,4.27a19,19,0,0,0,8.75-2.2,38.13,38.13,0,0,0,8.05-5.61,58.39,58.39,0,0,0,7.07-7.6,92.94,92.94,0,0,0,5.81-8.25,1.61,1.61,0,0,0,.2-.67l3.72-5.63q1.68-3.22,2.8-5.11l2-3.29.28-.42a19.61,19.61,0,0,0,4.62,1.82c-.93,1.58-1.87,3.31-2.8,5.18s-1.8,3.82-2.59,5.87a45.42,45.42,0,0,0-1.89,6.17,26.9,26.9,0,0,0-.7,6,17.59,17.59,0,0,0,.77,5.25,9.85,9.85,0,0,0,2.59,4.2,12.55,12.55,0,0,0,4.76,2.73,23.39,23.39,0,0,0,7.28,1,17.5,17.5,0,0,0,8.4-2.1,35,35,0,0,0,7.42-5.39c.45-.43.88-.86,1.32-1.3a13.83,13.83,0,0,0,2.18,5.43q2.52,3.63,8.82,3.5c2.43-.1,5.2-1.31,8.33-3.64a54.17,54.17,0,0,0,7.24-6.62,17.21,17.21,0,0,0,2.35,6.48q2.65,4.18,9.66,3.92a15.28,15.28,0,0,0,7.56-2.31,24.35,24.35,0,0,0,6-5.25,11,11,0,0,0,3.43,5.46q2.44,2.1,7.21,2,3.63-.15,8.4-3.78a77.56,77.56,0,0,0,9.66-9,32.52,32.52,0,0,0,2.31-3c.79-1.17,1.56-2.27,2.31-3.29a39.56,39.56,0,0,1,2.8-3.78,4.8,4.8,0,0,0,.91-3.85A3.15,3.15,0,0,0,429.54,129.21Zm-238.7-18.62q2-6.45,4.48-12.6t5.11-11.69a93.63,93.63,0,0,1,5.39-9.8,40.39,40.39,0,0,1,5.25-6.79,8.59,8.59,0,0,1,4.76-2.8q1,.14.42,2.73a49.49,49.49,0,0,1-1.68,5.81c-.74,2.14-1.51,4.2-2.31,6.16a36.51,36.51,0,0,1-1.61,3.64,169.36,169.36,0,0,1-12.46,23.24,155.88,155.88,0,0,1-10.78,14.56Q188.82,117,190.84,110.59Zm26.67,76.22c-.65,1.45-1.12,2.08-1.4,1.9v.14a1.67,1.67,0,0,1-.77-1.61,5.23,5.23,0,0,1,.7-2.18,11.64,11.64,0,0,1,1.68-2.23,10.54,10.54,0,0,1,2.17-1.82C219,183.43,218.16,185.37,217.51,186.81ZM238,119.69v-.28l-.42,1.68-.28.14a3.43,3.43,0,0,0-.56.35,4.41,4.41,0,0,1-1,.48,4.77,4.77,0,0,0,.7.57l.84.56c-.28,1.49-.54,2.68-.77,3.57s-.49,1.79-.77,2.73v-.14a40.91,40.91,0,0,1-3.15,7.14,31.71,31.71,0,0,1-4.13,5.81,25.27,25.27,0,0,1-4.41,3.92,7.29,7.29,0,0,1-4,1.47,1.79,1.79,0,0,1-1.68-1.13,6.59,6.59,0,0,1-.56-2.93,18.5,18.5,0,0,1,.49-4.13c.33-1.45.72-3,1.19-4.55a54.36,54.36,0,0,1,2.94-7.64,46,46,0,0,1,4-6.92,23.57,23.57,0,0,1,4.55-5,6.6,6.6,0,0,1,4.48-1.75,2.45,2.45,0,0,1,2.31,2.1A10,10,0,0,1,238,119.69Zm33.81,14.91q.35-1.33.63-2.31v.14c.47-1.22,1.19-2.87,2.17-5a53.88,53.88,0,0,1,3.43-6.23,31,31,0,0,1,4.2-5.32,7.06,7.06,0,0,1,4.48-2.38c.19,0,.21.25.07.77a14.18,14.18,0,0,1-.63,1.75c-.28.65-.58,1.3-.91,2a11.2,11.2,0,0,0-.63,1.4,41.94,41.94,0,0,1-5.46,9.87,45.81,45.81,0,0,1-7.84,7.77A18.6,18.6,0,0,1,271.76,134.6Zm128.59-13.51q-.84,2.66-1.89,5.46c-.7,1.86-1.33,3.64-1.89,5.32v-.14a53.24,53.24,0,0,1-6,10.85c-2.24,3-4.58,4.59-7,4.69a1,1,0,0,1-1-.84,6.63,6.63,0,0,1-.28-2.1,14.77,14.77,0,0,1,.28-2.66q.27-1.54.63-2.94t.63-2.52c.18-.75.32-1.26.42-1.54a34.6,34.6,0,0,1,2.66-7.91,40.11,40.11,0,0,1,4-6.79,22.48,22.48,0,0,1,4.48-4.69,6.41,6.41,0,0,1,4.27-1.61,1.82,1.82,0,0,1,1.47.77,3,3,0,0,1,.35,1.47A13.45,13.45,0,0,1,400.35,121.09Z"/><path class="cls-1" d="M514.24,71.18q2.58-7.92,4.27-13.65a3.54,3.54,0,0,0-1.82-2.24q8.4-.42,17-.7t17-.28q7.14,0,13.79.21t12.32.49c3.78.18,7.14.42,10.08.7a71.77,71.77,0,0,1,7.21,1A7.66,7.66,0,0,0,598,54.94a47.2,47.2,0,0,0,4.69-3.85,28.08,28.08,0,0,0,3.5-3.85c.84-1.17.93-1.85.28-2a124.48,124.48,0,0,0-17.29-2q-11.42-.7-25.55-.7-13.73,0-28.56.7T507,45.42a218.38,218.38,0,0,0-23.52,3.78q-10.29,2.31-14.91,5.39a9.82,9.82,0,0,0-3.5,3.64,4.57,4.57,0,0,0-.56,3.36,3.13,3.13,0,0,0,2,2,5.52,5.52,0,0,0,3.92-.21q3.78-2.38,11.62-4t17.92-2.73q-1.68,5.88-4.41,14.84T489.6,90.92q-3.15,10.42-6.65,21.56t-6.72,21.42q-3.23,10.29-6,18.9t-4.62,13.93a12.37,12.37,0,0,0,4,.28c1.72-.1,3.47-.28,5.25-.56a30.64,30.64,0,0,0,4.76-1.12c1.4-.47,2.24-1,2.52-1.54l.14-.28q2-6.3,5.6-16.38t7.42-21q3.21-9.24,6.65-19t6.58-18.9Q511.65,79.08,514.24,71.18Z"/><path class="cls-1" d="M668.72,102.19a9.69,9.69,0,0,0,6.51-2,12,12,0,0,0,4.41-5.6v.14A6.64,6.64,0,0,0,674,85a9.55,9.55,0,0,0-6.37,1.89,11.41,11.41,0,0,0-4.41,5.67v-.14c-1.12,2.52-1.17,4.73-.14,6.65S666,102,668.72,102.19Z"/><path class="cls-1" d="M713.24,144.47l.56-.42C713.8,143.77,713.61,143.91,713.24,144.47Z"/><path class="cls-1" d="M811.87,133.34a5.81,5.81,0,0,0-2.38-1.61,7.06,7.06,0,0,0-2.94-.49,2.24,2.24,0,0,0-2,1,30.53,30.53,0,0,1-3.15,5,67.78,67.78,0,0,1-4.69,5.67,51.24,51.24,0,0,1-4.9,4.69,8.36,8.36,0,0,1-3.78,2.1c-.28-.1-.42-1.45-.42-4.06a56,56,0,0,1,.56-7.14c.37-2.8.86-5.7,1.47-8.68s1.26-6,2-9,1.33-5.7,1.89-8.12l1.82-7.7q.13-1.26-1.89-1.68a15.64,15.64,0,0,0-4.76-.14,29.34,29.34,0,0,0-5.39,1,8.62,8.62,0,0,0-3.64,1.75l-6.3,10.64-6.44,11.06q1-4.35,1.89-8.4t1.89-7.56v-.14a.4.4,0,0,1,.14-.28v.42c.47-1.5.4-2.45-.21-2.87s-1.75-.54-3.43-.35a13.22,13.22,0,0,0-3,.42,15,15,0,0,0-3.29,1.19,25.19,25.19,0,0,0-2.8,1.61,3.63,3.63,0,0,0-1.54,1.68l.14-.7q-2.8,4.76-5.25,9.1t-4.69,8.68q1-5.46,2-10.71a81.55,81.55,0,0,1,2.59-9.87q-.42-.57-2.52-.63a26.19,26.19,0,0,0-4.62.28,30.86,30.86,0,0,0-4.83,1,6.61,6.61,0,0,0-3.15,1.68c-.56,1.12-1.28,2.42-2.17,3.92s-1.8,3-2.73,4.62-1.84,3.15-2.73,4.69l-2.31,4a4.54,4.54,0,0,1-.77,1.26,4.27,4.27,0,0,0-.77,1.26c.56-.84.77-1.08.63-.7-.06.15-.13.37-.22.61q-2.53,3.06-5.38,6.18a69.84,69.84,0,0,1-6,5.81,8.37,8.37,0,0,1-.42.76c-.09.15-.16.22-.21.22s0-.19.07-.56a.57.57,0,0,1,.14-.42v-.14a12.41,12.41,0,0,0,.07-6.79,70.81,70.81,0,0,0-2.45-7.63,66.68,66.68,0,0,1-2.45-7.43,30.65,30.65,0,0,1-1-8,21.33,21.33,0,0,1,.77-5.32,38.16,38.16,0,0,1,2.87-7.14,45.61,45.61,0,0,0-9.45.56,14.64,14.64,0,0,0-6,2.31,9.29,9.29,0,0,0-3.22,3.85,12.83,12.83,0,0,0-1,5.18c-.93,1.49-2.08,3.22-3.43,5.18s-2.82,4-4.41,6.16a9.59,9.59,0,0,0-3.85,2.38,15.06,15.06,0,0,0-2.45,3.36,34.24,34.24,0,0,0-1.75,3.78,1,1,0,0,0,0,.1c-.69,1-1.39,2-2.13,3A24.06,24.06,0,0,1,670.4,141q-5.6,6-7.7,6.3c-.37-.38-.28-1.71.28-4s1.31-4.83,2.24-7.63q.84-2.81,2-5.67c.75-1.92,1.49-3.85,2.24-5.81q1-2.39,1.89-4.69c.61-1.54,1.19-3.11,1.75-4.69.28-.56-.26-1.08-1.61-1.54a20.7,20.7,0,0,0-4.69-1,23,23,0,0,0-5.11,0c-1.63.18-2.64.56-3,1.12l-.14.42-.7,1.54v-.14c-.47,1.12-1,2.45-1.75,4s-1.4,3.12-2.1,4.76-1.38,3.29-2,5a44.54,44.54,0,0,0-1.54,4.62c0,.22-.1.46-.16.68-.82,1.22-1.65,2.42-2.5,3.58a42.68,42.68,0,0,1-4.27,5.05,24.23,24.23,0,0,1-4.34,3.5,8,8,0,0,1-4.13,1.33q-3.22.13-3.22-3.5a20.07,20.07,0,0,1,.77-5.11,52.71,52.71,0,0,1,2-6c.84-2.1,1.8-4.23,2.87-6.37s2.17-4.2,3.29-6.16l-.14.14a8.59,8.59,0,0,0,1.33-2.8,4.26,4.26,0,0,0-.21-2.73,6,6,0,0,0-2.31-2.52,16.18,16.18,0,0,0-5.11-2,13.4,13.4,0,0,1-1.61-.78,18.81,18.81,0,0,1-2.59-1.67,32.14,32.14,0,0,1-2.73-2.31,8,8,0,0,1-1.89-2.52,6.47,6.47,0,0,0-4.48-2.59,10.89,10.89,0,0,0-6,.42,8.1,8.1,0,0,0-4.34,3.85q-1.54,2.79.56,7.56c.75.28.89,1.16.42,2.66a39.59,39.59,0,0,1-2,5q-1.34,2.79-2.94,5.46t-2.31,3.92c-.28.46-.58.93-.91,1.4a6.69,6.69,0,0,0-.77,1.4c-.08.2-.12.38-.19.57-.66,1.08-1.35,2.19-2.12,3.35a21.6,21.6,0,0,1-3.85,4.48,50.67,50.67,0,0,1-4.9,4.62,9,9,0,0,1-2.94,1.82c-.28-.47-.14-1.82.42-4.06s1.31-4.76,2.24-7.56a56.85,56.85,0,0,1,2.45-6.86q1.75-4.2,3.71-8.68l2.45-5.74q1.2-2.81,1.89-4.9c.28-.94-.21-1.66-1.47-2.17a15.54,15.54,0,0,0-4.62-1,21.13,21.13,0,0,0-5.39.29c-1.77.32-2.94.91-3.5,1.75l-.28.42-2.94,6.86c-1,2.14-2,4.5-3,7.07s-1.89,4.92-2.73,7.07l-.28.28v.28a1,1,0,0,1-.07.42.54.54,0,0,0,.07.42l-.28.42-.28.7-.14.42a46,46,0,0,1-2.45,4.55,19.89,19.89,0,0,1-2.87,3.71,31,31,0,0,1-4.76,4.83,6.33,6.33,0,0,1-3.78,1.47c-1.21,0-1.82-.84-1.82-2.52a18.37,18.37,0,0,1,.56-4.27c.38-1.54.84-3.2,1.4-5q1.55-4.9,3.29-9c1.17-2.76,2.17-5.11,3-7.07l1.54-3.5c.28-.94-.23-1.68-1.54-2.24a14.75,14.75,0,0,0-4.69-1,18.15,18.15,0,0,0-5.32.35,5,5,0,0,0-3.43,2c-.46.93-1,2.12-1.75,3.57s-1.4,3-2.1,4.69-1.4,3.43-2.1,5.25q-.74,1.92-1.23,3.66-6.72,8.73-11.16,8.87h-.14a43.33,43.33,0,0,0,2.8-4.69c.84-1.64,1.64-3.34,2.38-5.11a39.9,39.9,0,0,0,3.08-14.56q0-6.45-2.94-10.36t-8.54-3.92a12.49,12.49,0,0,0-7.42,3.15,22.23,22.23,0,0,0-5.46,7.07,13.16,13.16,0,0,0-4.62,1.26,15.24,15.24,0,0,0-3.36,2.24,11.73,11.73,0,0,0-2.1,2.38c-.46.74-.74,1.21-.84,1.4l.14-.14q-1.53,2.37-2.94,4.83a23.84,23.84,0,0,0-2.23,5.39v-.28a38.56,38.56,0,0,0-3.37,15q0,6.3,2.87,10.15a9.78,9.78,0,0,0,8.33,3.85,17.42,17.42,0,0,0,8.33-2.31,41.12,41.12,0,0,0,8.47-6.24,24.56,24.56,0,0,0,2.66.5,10.93,10.93,0,0,0,3.22-.07,15.79,15.79,0,0,0,6-1.61,29,29,0,0,0,4.64-2.79,19.3,19.3,0,0,0,.61,4.47,9.58,9.58,0,0,0,2.17,4,10,10,0,0,0,4.06,2.59,19.43,19.43,0,0,0,6.44.91,16,16,0,0,0,7.35-1.82,27.82,27.82,0,0,0,6.93-5.18v1.54l.84-1.26a10,10,0,0,0,3.43,5.11c1.64,1.26,4,1.79,7.21,1.61q3.64-.15,8.33-3.57a66.83,66.83,0,0,0,9.87-9.17q2-2.38,3.85-5.18t3.29-4.76a6.21,6.21,0,0,0,1.08-3l2.56-3.88q1.68-3.22,2.8-5.11c.75-1.26,1.4-2.36,2-3.29l.28-.42a19.61,19.61,0,0,0,4.62,1.82c-.93,1.58-1.87,3.31-2.8,5.18s-1.8,3.82-2.59,5.87a45.42,45.42,0,0,0-1.89,6.17,26.9,26.9,0,0,0-.7,6,17.59,17.59,0,0,0,.77,5.25,9.85,9.85,0,0,0,2.59,4.2,12.55,12.55,0,0,0,4.76,2.73,23.39,23.39,0,0,0,7.28,1,17.5,17.5,0,0,0,8.4-2.1,35,35,0,0,0,7.42-5.39c.45-.43.88-.86,1.32-1.3a14,14,0,0,0,2.18,5.43q2.52,3.63,8.82,3.5c2.43-.1,5.2-1.31,8.33-3.64a55.44,55.44,0,0,0,7.55-7,14.63,14.63,0,0,0,4.07,6.4q4.83,4.34,13.23,4.62a9.87,9.87,0,0,0,2.31.28h2.45q8.82,0,17.92-6.09a59.46,59.46,0,0,0,12.81-12,6.37,6.37,0,0,1,.63.1c.65.14.93.67.84,1.61l-2.1,11.19a2.62,2.62,0,0,0,1.19,2.67,11.11,11.11,0,0,0,3.64,1.75,21,21,0,0,0,4.55.77,10,10,0,0,0,3.92-.42,2.52,2.52,0,0,1,.07-.49,3.77,3.77,0,0,0,.07-.78l8.26-14-1.4,7.15a3.26,3.26,0,0,0,1.33,2.52,10.78,10.78,0,0,0,3.29,1.82,18,18,0,0,0,4.06.91,10.09,10.09,0,0,0,3.64-.21q3.23-5.75,6.65-11.13T774,133.69c-.37,2.24-.68,4.41-.91,6.51a57.12,57.12,0,0,0-.35,6.23,36.79,36.79,0,0,0,.49,6.23,13.66,13.66,0,0,0,1.75,4.9,8.94,8.94,0,0,0,3.29,3.15,9.65,9.65,0,0,0,5.11,1,15.2,15.2,0,0,0,8.54-2.94,55.34,55.34,0,0,0,8.33-7,68.62,68.62,0,0,0,7.14-8.54,72.07,72.07,0,0,0,4.83-7.7A1.83,1.83,0,0,0,811.87,133.34ZM516.68,147.55c-.84,0-1.26-1.08-1.26-3.22a21.36,21.36,0,0,1,.7-4.83q.71-2.88,1.82-6.09a28.79,28.79,0,0,0,1.4,6,19.2,19.2,0,0,0,2.8,5.11Q518.78,147.55,516.68,147.55Zm18.06-25.41a46.68,46.68,0,0,1-2.52,7.35,36.46,36.46,0,0,1-2.1,4.48,31.49,31.49,0,0,1-.42-5.18,39.57,39.57,0,0,1,.35-5.25,33.53,33.53,0,0,1,1-4.76,16.77,16.77,0,0,1,1.47-3.64,4.56,4.56,0,0,1,1.68-1.89,1.75,1.75,0,0,1,.84.91,7.12,7.12,0,0,1,.42,3A22.69,22.69,0,0,1,534.74,122.14ZM696.3,141.53a7.59,7.59,0,0,1-1.26,5,4.63,4.63,0,0,1-3.5,2,9.74,9.74,0,0,1-3.36-.63,8.71,8.71,0,0,1-2.94-1.82,8.37,8.37,0,0,1-2-2.87,6.77,6.77,0,0,1-.42-3.65q2.52-3.21,4.48-6.15c1.31-2,2.75-4,4.34-6l1.68-2c.47,2.8,1,5.36,1.54,7.7.47,1.68.84,3.26,1.12,4.76A13.47,13.47,0,0,1,696.3,141.53Z"/></svg>